<?xml version="1.0" encoding="utf-8"?>
<!-- Generator: Adobe Illustrator 18.0.0, SVG Export Plug-In . SVG Version: 6.00 Build 0)  -->
<!DOCTYPE svg PUBLIC "-//W3C//DTD SVG 1.1//EN" "http://www.w3.org/Graphics/SVG/1.1/DTD/svg11.dtd">
<svg
   xmlns:dc="http://purl.org/dc/elements/1.1/"
   xmlns:cc="http://creativecommons.org/ns#"
   xmlns:rdf="http://www.w3.org/1999/02/22-rdf-syntax-ns#"
   xmlns:svg="http://www.w3.org/2000/svg"
   xmlns="http://www.w3.org/2000/svg"
   xmlns:sodipodi="http://sodipodi.sourceforge.net/DTD/sodipodi-0.dtd"
   xmlns:inkscape="http://www.inkscape.org/namespaces/inkscape"
   width="1588.2164"
   height="847.04083"
   id="svg4871"
   version="1.1"
   inkscape:version="0.48.4 r9939"
   sodipodi:docname="drawing.svg">
<sodipodi:namedview  width="1920px" id="base" pagecolor="#ffffff" bordercolor="#666666" borderopacity="1.0" inkscape:zoom="0.44725269" inkscape:cx="573.50824" inkscape:cy="684.67522" showgrid="false" fit-margin-top="0" fit-margin-left="0" inkscape:window-width="1358" inkscape:window-height="747" inkscape:pageopacity="0.0" inkscape:document-units="px" fit-margin-right="0" fit-margin-bottom="0" inkscape:window-x="0" inkscape:current-layer="layer1" inkscape:window-y="19" inkscape:window-maximized="0" inkscape:pageshadow="2">
	</sodipodi:namedview>
<path id="path6149" sodipodi:type="arc" sodipodi:cx="1216.689" sodipodi:cy="468.91046" sodipodi:rx="28.928564" sodipodi:ry="28.928564" fill="#303030" stroke="#0C0C0C" stroke-width="3" stroke-miterlimit="10" d="
	M762.3,142.6c0,20.4-16.5,36.8-36.8,36.8s-36.8-16.5-36.8-36.8s16.5-36.8,36.8-36.8C745.8,105.7,762.3,122.2,762.3,142.6z"/>
<path id="path6149-3" sodipodi:type="arc" sodipodi:cx="1216.689" sodipodi:cy="468.91046" sodipodi:rx="28.928564" sodipodi:ry="28.928564" fill="#303030" stroke="#0C0C0C" stroke-width="3" stroke-miterlimit="10" d="
	M694.2,210.7c0,20.3-16.5,36.8-36.8,36.8s-36.8-16.5-36.8-36.8c0-20.4,16.5-36.8,36.8-36.8C677.7,173.9,694.2,190.4,694.2,210.7z"/>
<path id="path6149-1" sodipodi:type="arc" sodipodi:cx="1216.689" sodipodi:cy="468.91046" sodipodi:rx="28.928564" sodipodi:ry="28.928564" fill="#303030" stroke="#0C0C0C" stroke-width="3" stroke-miterlimit="10" d="
	M830.3,210.7c0,20.4-16.5,36.8-36.8,36.8s-36.8-16.5-36.8-36.8s16.5-36.8,36.8-36.8C813.8,173.9,830.3,190.4,830.3,210.7z"/>
<path id="path6149-3-8" sodipodi:type="arc" sodipodi:cx="1216.689" sodipodi:cy="468.91046" sodipodi:rx="28.928564" sodipodi:ry="28.928564" fill="#303030" stroke="#0C0C0C" stroke-width="3" stroke-miterlimit="10" d="
	M762.3,278.7c0,20.4-16.5,36.8-36.8,36.8s-36.8-16.5-36.8-36.8s16.5-36.8,36.8-36.8C745.8,241.8,762.3,258.3,762.3,278.7z"/>
<path id="rect6211-4" fill="#303030" stroke="#0C0C0C" stroke-width="3" stroke-miterlimit="10" d="M472,248l40.7-30.6
	c6.8-5.1,16.4-3.7,21.4,3l0,0c5.1,6.8,3.7,16.4-3,21.4l-40.7,30.6c-6.8,5.1-16.4,3.7-21.4-3l0,0C463.9,262.7,465.2,253.1,472,248z"
	/>
<path id="rect6211-4-4" fill="#303030" stroke="#0C0C0C" stroke-width="3" stroke-miterlimit="10" d="M366.7,248l40.7-30.6
	c6.8-5.1,16.4-3.7,21.4,3l0,0c5.1,6.8,3.7,16.4-3,21.4l-40.7,30.6c-6.8,5.1-16.4,3.7-21.4-3l0,0C358.6,262.7,359.9,253.1,366.7,248z
	"/>
<path fill="#303030" stroke="#0C0C0C" stroke-width="3" stroke-miterlimit="10" d="M221.4,183.1h-24.8c-6.6,0-12-5.4-12-12v-24.8
	c0-6.6,5.4-12,12-12h24.8c6.6,0,12,5.4,12,12v24.8C233.4,177.7,228,183.1,221.4,183.1z"/>
<path fill="#303030" stroke="#0C0C0C" stroke-width="3" stroke-miterlimit="10" d="M278,239.7h-24.8c-6.6,0-12-5.4-12-12v-24.8
	c0-6.6,5.4-12,12-12H278c6.6,0,12,5.4,12,12v24.8C290,234.3,284.6,239.7,278,239.7z"/>
<path fill="#303030" stroke="#0C0C0C" stroke-width="3" stroke-miterlimit="10" d="M221.4,296.3h-24.8c-6.6,0-12-5.4-12-12v-24.8
	c0-6.6,5.4-12,12-12h24.8c6.6,0,12,5.4,12,12v24.8C233.4,290.9,228,296.3,221.4,296.3z"/>
<path fill="#303030" stroke="#0C0C0C" stroke-width="3" stroke-miterlimit="10" d="M164.7,239.7H140c-6.6,0-12-5.4-12-12v-24.8
	c0-6.6,5.4-12,12-12h24.8c6.6,0,12,5.4,12,12v24.8C176.7,234.3,171.3,239.7,164.7,239.7z"/>
<path fill="#1C1C1C" stroke="#161616" stroke-width="2" stroke-miterlimit="10" d="M192.8,172.9l16.1-28.4c0-0.1,0.1-0.1,0.2,0
	l16.1,28.4c0,0,0,0,0,0L192.8,172.9C192.8,172.9,192.8,172.9,192.8,172.9z"/>
<path fill="#1C1C1C" stroke="#161616" stroke-width="2" stroke-miterlimit="10" d="M166.6,231.5l-28.4-16.1c-0.1,0-0.1-0.1,0-0.2
	l28.4-16.1c0,0,0,0,0,0L166.6,231.5C166.6,231.5,166.6,231.5,166.6,231.5z"/>
<path fill="#1C1C1C" stroke="#161616" stroke-width="2" stroke-miterlimit="10" d="M251.4,199.1l28.4,16.1c0.1,0,0.1,0.1,0,0.2
	l-28.4,16.1c0,0,0,0,0,0L251.4,199.1C251.4,199.1,251.4,199.1,251.4,199.1z"/>
<path fill="#1C1C1C" stroke="#161616" stroke-width="2" stroke-miterlimit="10" d="M225.2,257.7l-16.1,28.4c0,0.1-0.1,0.1-0.2,0
	l-16.1-28.4c0,0,0,0,0,0L225.2,257.7C225.2,257.7,225.2,257.7,225.2,257.7z"/>
<rect x="645.8" y="18.2" fill="#303030" stroke="#0C0C0C" stroke-width="3" stroke-miterlimit="10" width="159.3" height="50.3"/>
<text transform="matrix(1 0 0 1 641.8187 230.3367)" fill="#1C1C1C" stroke="#161616" stroke-width="2" stroke-miterlimit="10" font-family="'Arial'" font-size="50.5194">Y</text>
<text transform="matrix(1 0 0 1 709.152 161.67)" fill="#1C1C1C" stroke="#161616" stroke-width="2" stroke-miterlimit="10" font-family="'Arial'" font-size="50.5194">X</text>
<text transform="matrix(1 0 0 1 710.1519 299.0035)" fill="#1C1C1C" stroke="#161616" stroke-width="2" stroke-miterlimit="10" font-family="'Arial'" font-size="50.5194">B</text>
<text transform="matrix(1 0 0 1 776.4851 228.3368)" fill="#1C1C1C" stroke="#161616" stroke-width="2" stroke-miterlimit="10" font-family="'Arial'" font-size="50.5194">A</text>
<text transform="matrix(1 0 0 1 709.1517 61.3365)" fill="#1C1C1C" stroke="#161616" stroke-width="2" stroke-miterlimit="10" font-family="'Arial'" font-size="50.5194">R</text>
<rect x="985.8" y="18.2" fill="#B7E4FF" stroke="#69A5FF" stroke-width="3" stroke-miterlimit="10" width="159.3" height="50.3"/>
<text transform="matrix(1 0 0 1 1049.1517 61.3365)" fill="#9DCAFF" stroke="#75B4FF" stroke-width="2" stroke-miterlimit="10" font-family="'Arial'" font-size="50.5194">R</text>
<rect x="985.8" y="80.7" fill="#B7E4FF" stroke="#69A5FF" stroke-width="3" stroke-miterlimit="10" width="159.3" height="50.3"/>
<text transform="matrix(1 0 0 1 1049.1517 123.8028)" fill="#9DCAFF" stroke="#75B4FF" stroke-width="2" stroke-miterlimit="10" font-family="'Arial'" font-size="50.5194">L</text>
<rect x="129.4" y="18.2" fill="#303030" stroke="#0C0C0C" stroke-width="3" stroke-miterlimit="10" width="159.3" height="50.3"/>
<text transform="matrix(1 0 0 1 192.6841 61.3365)" fill="#1C1C1C" stroke="#161616" stroke-width="2" stroke-miterlimit="10" font-family="'Arial'" font-size="50.5194">L</text>
<path id="path6149_1_" sodipodi:type="arc" sodipodi:cx="1216.689" sodipodi:cy="468.91046" sodipodi:rx="28.928564" sodipodi:ry="28.928564" fill="#B7E4FF" stroke="#69A5FF" stroke-width="3" stroke-miterlimit="10" d="
	M1137.5,200.7c0,20.4-16.5,36.8-36.8,36.8c-20.3,0-36.8-16.5-36.8-36.8s16.5-36.8,36.8-36.8C1121,163.8,1137.5,180.3,1137.5,200.7z"
	/>
<path id="path6149-3_1_" sodipodi:type="arc" sodipodi:cx="1216.689" sodipodi:cy="468.91046" sodipodi:rx="28.928564" sodipodi:ry="28.928564" fill="#B7E4FF" stroke="#69A5FF" stroke-width="3" stroke-miterlimit="10" d="
	M1059.4,278.7c0,20.3-16.5,36.8-36.8,36.8c-20.3,0-36.8-16.5-36.8-36.8c0-20.4,16.5-36.8,36.8-36.8
	C1042.9,241.9,1059.4,258.4,1059.4,278.7z"/>
<path id="path6149-1_1_" sodipodi:type="arc" sodipodi:cx="1216.689" sodipodi:cy="468.91046" sodipodi:rx="28.928564" sodipodi:ry="28.928564" fill="#B7E4FF" stroke="#69A5FF" stroke-width="3" stroke-miterlimit="10" d="
	M1215.6,278.7c0,20.4-16.5,36.8-36.8,36.8c-20.3,0-36.8-16.5-36.8-36.8s16.5-36.8,36.8-36.8C1199.1,241.9,1215.6,258.4,1215.6,278.7
	z"/>
<path id="path6149-3-8_1_" sodipodi:type="arc" sodipodi:cx="1216.689" sodipodi:cy="468.91046" sodipodi:rx="28.928564" sodipodi:ry="28.928564" fill="#B7E4FF" stroke="#69A5FF" stroke-width="3" stroke-miterlimit="10" d="
	M1137.5,356.8c0,20.4-16.5,36.8-36.8,36.8c-20.3,0-36.8-16.5-36.8-36.8s16.5-36.8,36.8-36.8C1121,319.9,1137.5,336.4,1137.5,356.8z"
	/>
<g>
	
		<text transform="matrix(1 0 0 1 1007.0496 298.4045)" fill="#9DCAFF" stroke="#75B4FF" stroke-width="2" stroke-miterlimit="10" font-family="'Arial'" font-size="50.5194">Y</text>
</g>
<g>
	
		<text transform="matrix(1 0 0 1 1084.3829 219.7379)" fill="#9DCAFF" stroke="#75B4FF" stroke-width="2" stroke-miterlimit="10" font-family="'Arial'" font-size="50.5194">X</text>
</g>
<g>
	
		<text transform="matrix(1 0 0 1 1085.3828 377.0714)" fill="#9DCAFF" stroke="#75B4FF" stroke-width="2" stroke-miterlimit="10" font-family="'Arial'" font-size="50.5194">B</text>
</g>
<g>
	
		<text transform="matrix(1 0 0 1 1161.7161 296.4047)" fill="#9DCAFF" stroke="#75B4FF" stroke-width="2" stroke-miterlimit="10" font-family="'Arial'" font-size="50.5194">A</text>
</g>
<path id="rect6211-4_1_" fill="#B7E4FF" stroke="#69A5FF" stroke-width="3" stroke-miterlimit="10" d="M1184.9,108.9l40.7-30.6
	c6.8-5.1,16.4-3.7,21.4,3l0,0c5.1,6.8,3.7,16.4-3,21.4l-40.7,30.6c-6.8,5.1-16.4,3.7-21.4-3l0,0
	C1176.8,123.6,1178.1,114,1184.9,108.9z"/>
<path fill="#B7E4FF" stroke="#69A5FF" stroke-width="3" stroke-miterlimit="10" d="M1308.7,130.2h-24.8c-6.6,0-12-5.4-12-12V93.4
	c0-6.6,5.4-12,12-12h24.8c6.6,0,12,5.4,12,12v24.8C1320.7,124.8,1315.3,130.2,1308.7,130.2z"/>
<path fill="#9DCAFF" stroke="#75B4FF" stroke-width="2" stroke-miterlimit="10" d="M1280.1,120l16.1-28.4c0-0.1,0.1-0.1,0.2,0
	l16.1,28.4c0,0,0,0,0,0L1280.1,120C1280.1,120,1280.1,120,1280.1,120z"/>
</svg>
