<?xml version="1.0" encoding="utf-8"?>
<!-- Generator: Adobe Illustrator 18.0.0, SVG Export Plug-In . SVG Version: 6.00 Build 0)  -->
<!DOCTYPE svg PUBLIC "-//W3C//DTD SVG 1.1//EN" "http://www.w3.org/Graphics/SVG/1.1/DTD/svg11.dtd">
<svg version="1.1"
	 id="svg4871" xmlns:dc="http://purl.org/dc/elements/1.1/" xmlns:cc="http://creativecommons.org/ns#" xmlns:rdf="http://www.w3.org/1999/02/22-rdf-syntax-ns#" xmlns:svg="http://www.w3.org/2000/svg" xmlns:sodipodi="http://sodipodi.sourceforge.net/DTD/sodipodi-0.dtd" xmlns:inkscape="http://www.inkscape.org/namespaces/inkscape" sodipodi:docname="drawing.svg" inkscape:version="0.48.4 r9939"
	 xmlns="http://www.w3.org/2000/svg" xmlns:xlink="http://www.w3.org/1999/xlink" x="0px" y="0px" viewBox="0 0 1588.2 847"
	 enable-background="new 0 0 1588.2 847" xml:space="preserve">
<sodipodi:namedview  width="1920px" fit-margin-left="0" fit-margin-top="0" showgrid="false" inkscape:cy="684.67522" inkscape:cx="573.50824" inkscape:zoom="0.44725269" borderopacity="1.0" bordercolor="#666666" pagecolor="#ffffff" id="base" fit-margin-bottom="0" fit-margin-right="0" inkscape:window-maximized="0" inkscape:window-y="19" inkscape:window-x="0" inkscape:current-layer="layer1" inkscape:pageshadow="2" inkscape:document-units="px" inkscape:pageopacity="0.0" inkscape:window-height="747" inkscape:window-width="1358">
	</sodipodi:namedview>
<g id="layer1" transform="translate(-1.3125275,-628.60194)" inkscape:label="Layer 1" inkscape:groupmode="layer">
	
		<path id="rect4752-7" inkscape:connector-curvature="0" fill="#485053" stroke="#1A1C1B" stroke-width="3" stroke-linejoin="bevel" d="
		M190,762.9c-4.6,0-8.2,3.7-8.2,8.2v47.2h-47.2c-4.6,0-8.3,3.7-8.3,8.3v34.6c0,4.6,3.7,8.2,8.3,8.2h47.2v47.2c0,4.6,3.7,8.3,8.2,8.3
		h34.6c4.6,0,8.2-3.7,8.2-8.3v-47.2H280c4.6,0,8.3-3.7,8.3-8.2v-34.6c0-4.6-3.7-8.3-8.3-8.3h-47.2v-47.2c0-4.6-3.7-8.2-8.2-8.2H190z
		"/>
	
		<path id="path6149" sodipodi:ry="28.928564" sodipodi:rx="28.928564" sodipodi:cy="468.91046" sodipodi:cx="1216.689" sodipodi:type="arc" fill="#485053" stroke="#1A1C1B" stroke-width="3" stroke-linejoin="bevel" d="
		M800.1,771.2c0,20.4-16.5,36.8-36.8,36.8c-20.3,0-36.8-16.5-36.8-36.8s16.5-36.8,36.8-36.8C783.6,734.3,800.1,750.8,800.1,771.2z"
		/>
	
		<path id="path6149-3" sodipodi:ry="28.928564" sodipodi:rx="28.928564" sodipodi:cy="468.91046" sodipodi:cx="1216.689" sodipodi:type="arc" fill="#485053" stroke="#1A1C1B" stroke-width="3" stroke-linejoin="bevel" d="
		M707.9,842.9c0,20.3-16.5,36.8-36.8,36.8c-20.3,0-36.8-16.5-36.8-36.8c0-20.4,16.5-36.8,36.8-36.8
		C691.4,806.1,707.9,822.6,707.9,842.9z"/>
	
		<path id="path6149-1" sodipodi:ry="28.928564" sodipodi:rx="28.928564" sodipodi:cy="468.91046" sodipodi:cx="1216.689" sodipodi:type="arc" fill="#485053" stroke="#1A1C1B" stroke-width="3" stroke-linejoin="bevel" d="
		M891.8,841.9c0,20.4-16.5,36.8-36.8,36.8c-20.3,0-36.8-16.5-36.8-36.8c0-20.3,16.5-36.8,36.8-36.8
		C875.3,805.1,891.8,821.6,891.8,841.9z"/>
	
		<path id="path6149-3-8" sodipodi:ry="28.928564" sodipodi:rx="28.928564" sodipodi:cy="468.91046" sodipodi:cx="1216.689" sodipodi:type="arc" fill="#485053" stroke="#1A1C1B" stroke-width="3" stroke-linejoin="bevel" d="
		M799.6,913.7c0,20.4-16.5,36.8-36.8,36.8c-20.3,0-36.8-16.5-36.8-36.8s16.5-36.8,36.8-36.8C783.1,876.8,799.6,893.3,799.6,913.7z"
		/>
	<path id="rect6211-4" fill="#485053" stroke="#1A1C1B" stroke-width="3" stroke-linejoin="bevel" d="M470.3,876.6L511,846
		c6.8-5.1,16.4-3.7,21.4,3l0,0c5.1,6.8,3.7,16.4-3,21.4L488.7,901c-6.8,5.1-16.4,3.7-21.4-3l0,0
		C462.2,891.3,463.5,881.7,470.3,876.6z"/>
	<path id="rect6211-4-4" fill="#485053" stroke="#1A1C1B" stroke-width="3" stroke-linejoin="bevel" d="M365,876.6l40.7-30.6
		c6.8-5.1,16.4-3.7,21.4,3l0,0c5.1,6.8,3.7,16.4-3,21.4L383.4,901c-6.8,5.1-16.4,3.7-21.4-3l0,0C356.9,891.3,358.2,881.7,365,876.6z
		"/>
	<text transform="matrix(1 0 0 1 197.0527 1290.5916)" fill="#FFFFFF" font-family="'DejaVuSans-Bold'" font-size="72">DISCONECTED</text>
	<path id="rect6211-4-4-2" fill="#FFFFFF" d="M1184.8,662.3l40.7-30.6c6.8-5.1,16.4-3.7,21.4,3v0c5.1,6.8,3.7,16.4-3,21.4
		l-40.7,30.6c-6.8,5.1-16.4,3.7-21.4-3l0,0C1176.7,677,1178.1,667.4,1184.8,662.3z"/>
	
		<path id="path6149-4" sodipodi:ry="28.928564" sodipodi:rx="28.928564" sodipodi:cy="468.91046" sodipodi:cx="1216.689" sodipodi:type="arc" opacity="0.99" fill="#FFFFFF" stroke="#FFFFFF" stroke-width="0.7851" enable-background="new    " d="
		M1324.2,665.9c0,20.4-16.5,36.8-36.8,36.8c-20.3,0-36.8-16.5-36.8-36.8c0-20.3,16.5-36.8,36.8-36.8
		C1307.7,629.1,1324.2,645.6,1324.2,665.9z"/>
	
		<path id="path6000-5-0" inkscape:transform-center-y="-5.1055936" inkscape:transform-center-x="-2.3103301" inkscape:connector-curvature="0" fill="#FFFFFF" stroke="#FFFFFF" d="
		M1358.2,661.7l-33,0l16.5-32.6L1358.2,661.7z"/>
	<g id="g3172" transform="translate(266.18968,-324.31703)">
		<path id="path5695-4" inkscape:connector-curvature="0" fill="#C4C1BC" stroke="#747B81" stroke-width="1.1159" d="M1207.9,995.9
			l16.5,32.6l-33,0L1207.9,995.9L1207.9,995.9z M1168.1,1051.8l0,33l-32.6-16.5L1168.1,1051.8L1168.1,1051.8z M1247.7,1051.8
			l32.6,16.5l-32.6,16.5L1247.7,1051.8L1247.7,1051.8z M1224.4,1108.1l-16.5,32.6l-16.5-32.6L1224.4,1108.1L1224.4,1108.1z"/>
		
			<path id="rect4752-7-2" inkscape:connector-curvature="0" fill="#485053" stroke="#1A1C1B" stroke-width="3" stroke-linejoin="bevel" d="
			M1190.6,987.4c-4.6,0-8.2,3.7-8.2,8.2v47.2h-47.2c-4.6,0-8.3,3.7-8.3,8.3v34.6c0,4.6,3.7,8.2,8.3,8.2h47.2v47.2
			c0,4.6,3.7,8.3,8.2,8.3h34.6c4.6,0,8.2-3.7,8.2-8.3v-47.2h47.2c4.6,0,8.3-3.7,8.3-8.2V1051c0-4.6-3.7-8.3-8.3-8.3h-47.2v-47.2
			c0-4.6-3.7-8.2-8.2-8.2H1190.6z M1207.9,995.9l16.5,32.6l-33,0L1207.9,995.9L1207.9,995.9z M1168.1,1051.8l0,33l-32.6-16.5
			L1168.1,1051.8L1168.1,1051.8z M1247.8,1051.8l32.6,16.5l-32.6,16.5L1247.8,1051.8L1247.8,1051.8z M1224.4,1108.1l-16.5,32.6
			l-16.5-32.6L1224.4,1108.1L1224.4,1108.1z"/>
	</g>
	
		<rect x="106.6" y="631.2" fill="#485053" stroke="#1A1C1B" stroke-width="3" stroke-linejoin="bevel" width="208.3" height="31.2"/>
	
		<rect x="655.1" y="631.2" fill="#485053" stroke="#1A1C1B" stroke-width="3" stroke-linejoin="bevel" width="208.3" height="31.2"/>
	<rect x="969.5" y="631.2" fill="#FFFFFF" width="208.3" height="31.2"/>
</g>
</svg>
